<svg xmlns="http://www.w3.org/2000/svg" viewBox="0 0 122 100" fill="none">
  <rect width="122" height="100" rx="24" fill="#0B1D3A"/>
  <path d="M32 70 C20 70 11 61 11 50 C11 41 17 34 26 32 C28 20 38 11 50 11 C60 11 69 17 73 26 C76 24 79 23 83 23 C93 23 101 31 101 41 C107 44 111 50 111 57 C111 64.5 105 70 97 70 Z" stroke="#00C2FF" stroke-width="8" stroke-linejoin="round"/>
  <path d="M42 78 L42 44 L70 68 L70 40" stroke="#ffffff" stroke-width="8" stroke-linecap="round" stroke-linejoin="round"/>
  <circle cx="42" cy="87" r="7.5" fill="#FF6B5E" stroke="#0B1D3A" stroke-width="4"/>
  <circle cx="70" cy="30" r="7.5" fill="#00C2FF" stroke="#0B1D3A" stroke-width="4"/>
</svg>
